HIERARCHY
ROOT pelvis
{
  OFFSET 0 100 0
  CHANNELS 6 Xposition Yposition Zposition Zrotation Xrotation Yrotation
  JOINT pelvis_right_femur
  {
    OFFSET -10.78128 -3.44521 -0.5502486
    CHANNELS 3 Zrotation Xrotation Yrotation
    JOINT right_femur_tibia
    {
      OFFSET -0.8047443 -44.0398 -0.1307829
      CHANNELS 3 Zrotation Xrotation Yrotation
      JOINT right_tibia_foot
      {
        OFFSET 3.006224 -47.83518 -5
        CHANNELS 3 Zrotation Xrotation Yrotation
        End Site
        {
          OFFSET 0 -5 15
        }
      }
    }
  }
  JOINT pelvis_left_femur
  {
    OFFSET 10.78128 -3.44521 -0.5502486
    CHANNELS 3 Zrotation Xrotation Yrotation
    JOINT left_femur_tibia
    {
      OFFSET 0.8047443 -44.0398 -0.1307829
      CHANNELS 3 Zrotation Xrotation Yrotation
      JOINT left_tibia_foot
      {
        OFFSET -4.370144 -48.10324 -4.275266
        CHANNELS 3 Zrotation Xrotation Yrotation
        End Site
        {
          OFFSET 0 -5 15
        }
      }
    }
  }
  JOINT pelvis_spine1
  {
    OFFSET 0 6.468898 -3.129235
    CHANNELS 3 Zrotation Xrotation Yrotation
    JOINT spine1
    {
      OFFSET 0 23.15396 4.99043
      CHANNELS 3 Zrotation Xrotation Yrotation
      JOINT spine2
      {
        OFFSET 0 20.79997 -5.064912
        CHANNELS 3 Zrotation Xrotation Yrotation
        JOINT neck
        {
          OFFSET 0 14.38658 9.616178
          CHANNELS 3 Zrotation Xrotation Yrotation
          End Site
          {
            OFFSET 0 20 0
          }
        }
      }
      JOINT right_manubrium
      {
        OFFSET -5.722621 16.35077 3.967754
        CHANNELS 3 Zrotation Xrotation Yrotation
        JOINT right_clavicle
        {
          OFFSET -13.16364 1.694482 -4.693211
          CHANNELS 3 Zrotation Xrotation Yrotation
          JOINT right_humerus
          {
            OFFSET -28.5034 -0.3100689 -2.792744
            CHANNELS 3 Zrotation Xrotation Yrotation
            JOINT right_radius
            {
              OFFSET -25.15693 0.02248979 -1.271978
              CHANNELS 3 Zrotation Xrotation Yrotation
              End Site
              {
                OFFSET -15 0 0
              }
            }
          }
        }
      }
      JOINT left_manubrium
      {
        OFFSET 5.722621 16.35077 3.967754
        CHANNELS 3 Zrotation Xrotation Yrotation
        JOINT left_clavicle
        {
          OFFSET 13.16364 1.694482 -4.693211
          CHANNELS 3 Zrotation Xrotation Yrotation
          JOINT left_humerus
          {
            OFFSET 29.39168 -1.063119 -2.237045
            CHANNELS 3 Zrotation Xrotation Yrotation
            JOINT left_radius
            {
              OFFSET 24.59957 -0.9528479 0.9047498
              CHANNELS 3 Zrotation Xrotation Yrotation
              End Site
              {
                OFFSET 15 -0 -0
              }
            }
          }
        }
      }
    }
  }
}
MOTION
Frames: 21
Frame Time: 0.0416666666667
0 103.5113 0 1.303784 -2.953482 0.001280292 1.450825 -11.92553 7.180489 -0 39.38732 -0 -6.584924 -16.56041 -4.32205 -6.357023 12.03441 -23.99147 -0 5.366392 -0 -0.5974705 -19.34537 22.81713 -1.117965 -2.143368 4.847699 -0.5456609 7.619754 -6.520428 1.67665 22.17509 8.647832 5.966896 -21.79327 9.131239 6.396543 -18.78371 9.9618 87.58042 36.87381 -22.68749 -0 0 17.6869 -6.196304 7.571622 2.20555 7.178912 -21.05654 -2.77381 -101.4276 42.71555 29.45433 0 0 -26.0009 -8.315493 16.53019 27.48956
0.1174085 103.5204 1.018458 0.8834493 -2.239364 -0.09692304 2.208084 -13.56118 8.574994 -0 40.8406 -0 -6.307948 -17.63902 -5.396993 -6.262559 12.19568 -24.69684 -0 5.17704 -0 -1.131835 -20.44693 23.60292 -1.068549 -2.11283 5.083883 -0.6964075 7.6549 -6.370103 1.67066 22.19547 8.69903 6.04351 -21.69105 9.106305 6.362407 -18.88567 9.949599 87.40347 37.37366 -22.32454 -0 0 17.75314 -6.59662 7.909292 2.276042 7.276012 -21.17717 -2.605624 -101.5886 42.54821 29.73291 0 0 -25.96273 -7.966054 16.62114 27.28932
0.1707884 103.4425 2.242487 0.206041 -0.8782725 -0.1917432 3.573809 -18.28988 8.896492 -0 38.31201 -0 -6.387303 -16.04265 -5.877795 -6.035725 12.389 -24.22007 -0 5.256798 -0 -1.627733 -22.62916 23.35583 -1.147411 -1.823161 4.357579 0.09092168 7.49588 -6.901883 1.514688 22.21493 8.442527 5.56236 -22.24963 8.938655 6.162796 -18.37805 10.16345 87.97364 36.7003 -22.92138 -0 0 16.50854 -6.918349 8.153466 2.894702 6.688761 -20.839 -2.868738 -99.85458 41.68463 27.87016 0 0 -25.59955 -8.296331 16.40195 27.00729
0.1861983 103.2763 3.686462 -0.3197838 0.2452784 -0.2264153 4.724874 -22.20133 9.250141 -0 36.11107 -0 -6.336593 -14.60479 -6.149748 -5.836624 12.63509 -23.84881 -0 5.349086 -0 -1.948746 -24.27899 23.03195 -1.16867 -1.653948 4.018035 0.4829563 7.426815 -7.162018 1.428371 22.21492 8.319768 5.320277 -22.52408 8.838554 6.039463 -18.11459 10.27617 88.26712 36.47289 -23.18286 -0 0 15.81165 -7.23652 8.415917 3.263412 6.411101 -20.71214 -2.963939 -98.89608 41.10509 26.85615 0 0 -25.43759 -8.332804 16.29226 26.7449
0.1879112 103.0024 5.499928 -0.8068488 1.489184 -0.1624884 5.942793 -26.5622 9.402236 -0 32.99125 -0 -6.195013 -12.5413 -6.027332 -5.649418 13.00533 -23.21475 -0 5.581258 -0 -1.818412 -25.66462 22.46054 -1.224184 -1.460951 3.590698 0.9776355 7.332686 -7.477109 1.325142 22.21924 8.159781 5.020879 -22.87025 8.709805 5.906792 -17.78988 10.4276 88.54093 36.11967 -23.4384 -0 0 14.99515 -7.603317 8.665896 3.737982 6.052363 -20.51634 -3.090862 -97.76955 40.38131 25.64414 0 0 -25.15705 -8.39596 16.15574 26.39609
0.1997662 102.6094 7.796027 -1.209011 2.67948 0.03366119 7.006264 -30.67223 9.292759 -0 29.35387 -0 -6.02399 -10.11753 -5.556313 -5.459477 13.47212 -22.38183 -0 6.105685 -0 -1.582374 -26.56476 21.5128 -1.260666 -1.293079 3.25513 1.377595 7.266321 -7.731605 1.237215 22.21245 8.03468 4.779349 -23.14387 8.596024 5.791223 -17.51695 10.55411 88.76793 35.88527 -23.63294 -0 0 14.28973 -7.990311 8.943027 4.160097 5.773723 -20.38511 -3.178041 -96.80344 39.69716 24.60546 0 0 -24.94943 -8.365168 16.03372 26.03037
0.2436617 102.1027 10.71085 -1.544844 3.793957 0.3948295 7.842425 -34.30684 8.81831 -0 25.23192 -0 -5.882707 -7.395415 -4.736805 -5.247852 14.03627 -21.28913 -0 7.170296 -0 -1.388557 -26.79027 20.05622 -1.296463 -1.129106 2.963712 1.744507 7.212549 -7.955895 1.15088 22.20426 7.921391 4.558469 -23.38794 8.478259 5.683693 -17.26214 10.67957 88.94074 35.71595 -23.75523 -0 0 13.61769 -8.440805 9.253822 4.598716 5.51722 -20.27388 -3.243498 -95.89183 38.97518 23.63109 0 0 -24.73166 -8.264082 15.91181 25.61145
0.33353 101.5177 14.3537 -1.846429 4.707428 0.9314771 8.348794 -36.85339 7.947635 -0 21.09264 -0 -5.861974 -4.743515 -3.707034 -4.974477 14.6377 -19.96717 -0 9.095656 -0 -1.60768 -26.10265 17.99661 -1.316472 -0.9766149 2.750531 2.037525 7.184946 -8.13008 1.072167 22.19123 7.83486 4.379873 -23.57017 8.367029 5.586763 -17.04706 10.78889 89.07542 35.66448 -23.81389 -0 0 13.01879 -8.95059 9.614749 5.019174 5.314587 -20.2138 -3.27717 -95.08625 38.2596 22.78504 0 0 -24.55779 -8.076006 15.79412 25.16733
0.468633 100.9401 18.78731 -2.172473 5.271039 1.612748 8.538088 -37.62781 6.751452 -0 17.58731 -0 -6.072043 -2.651352 -2.675418 -4.58993 15.14296 -18.45247 -0 12.34006 -0 -2.55831 -24.21081 15.37958 -1.322885 -0.8320205 2.625254 2.253458 7.185738 -8.246909 0.9988673 22.17899 7.774397 4.242609 -23.68554 8.258926 5.499833 -16.87676 10.88504 89.15491 35.74738 -23.77955 -0 0 12.49739 -9.550619 10.03999 5.4381 5.158357 -20.19983 -3.276456 -94.3888 37.54073 22.08234 0 0 -24.40318 -7.795339 15.6802 24.6936
0.6274451 100.5203 23.98219 -2.581923 5.319761 2.333391 8.595149 -36.05651 5.511008 -0 15.52188 -0 -6.605374 -1.677602 -1.949602 -4.056997 15.29495 -16.81735 -0 17.44324 -0 -4.374554 -20.91494 12.53548 -1.313911 -0.6961258 2.609986 2.374282 7.221413 -8.291002 0.931921 22.1721 7.744113 4.152983 -23.71819 8.155226 5.423197 -16.76618 10.96595 89.16143 35.99327 -23.62014 -0 0 12.07838 -10.26971 10.5463 5.859985 5.052286 -20.23509 -3.234608 -93.82405 36.82638 21.56538 0 0 -24.25677 -7.413237 15.5734 24.19684
0.7743954 100.4599 29.78943 -3.057281 4.751279 2.895785 8.746287 -32.13965 4.590701 -0 15.37532 -0 -7.4638 -2.099641 -1.805768 -3.42058 14.69975 -15.11496 -0 24.91082 -0 -6.70994 -16.3449 10.09325 -1.295468 -0.5676013 2.724511 2.391063 7.295734 -8.246305 0.8705095 22.17828 7.743339 4.111068 -23.65894 8.052874 5.357236 -16.72988 11.03644 89.04953 36.4173 -23.27236 -0 0 11.7868 -11.15724 11.14916 6.311192 4.987627 -20.30758 -3.144896 -93.40922 36.10324 21.27279 0 0 -24.07043 -6.920621 15.47562 23.66813
0.8885819 100.9409 35.95503 -3.405321 3.607741 3.064249 8.941823 -26.73784 4.158851 -0 16.69562 -0 -8.416859 -3.57736 -2.262096 -2.873616 12.88841 -13.36867 -0 34.81734 -0 -8.719236 -11.25051 8.678926 -1.277097 -0.4462906 2.985751 2.298924 7.411512 -8.097461 0.8150047 22.20366 7.768673 4.113566 -23.50186 7.948935 5.301893 -16.7835 11.10401 88.75837 37.01463 -22.65904 -0 0 11.65447 -12.26816 11.85824 6.827032 4.951485 -20.39652 -3.002211 -93.15629 35.34922 21.23813 0 0 -23.78314 -6.313042 15.38591 23.09403
0.9913111 102.0041 42.19133 -3.279656 2.053109 2.721825 8.77874 -21.07553 4.04891 -0 18.0001 -0 -8.938923 -5.28411 -2.918773 -2.675239 9.471785 -11.62806 -0 46.17444 -0 -9.546689 -6.871521 8.478229 -1.271504 -0.3336788 3.399549 2.101937 7.569048 -7.835597 0.7678482 22.24965 7.812129 4.151385 -23.24792 7.841415 5.25565 -16.93963 11.17844 88.22022 37.74369 -21.7028 -0 0 11.71586 -13.65089 12.66929 7.448742 4.926177 -20.47062 -2.8074 -93.06116 34.53382 21.4735 0 0 -23.33048 -5.59953 15.29674 22.46094
1.123053 103.4639 48.26274 -2.473811 0.2441374 1.998788 7.931324 -15.68149 3.959248 -0 17.8215 -0 -8.531845 -6.648397 -3.229017 -2.857976 4.35221 -10.04349 -0 56.55218 -0 -9.104467 -4.244153 9.2423 -1.288246 -0.2351436 3.957304 1.809226 7.766182 -7.461995 0.7357032 22.30942 7.863522 4.212341 -22.90326 7.733924 5.214141 -17.20627 11.26613 87.38818 38.5247 -20.35918 -0 0 12.00708 -15.32214 13.56012 8.202882 4.898317 -20.49764 -2.569012 -93.10579 33.63824 21.96613 0 0 -22.6767 -4.810968 15.19636 21.77295
1.292381 104.9604 54.03266 -1.229254 -1.66824 1.181742 6.616838 -10.20566 3.757093 -0 15.93311 -0 -7.26307 -7.802433 -3.002054 -3.06224 -2.102277 -8.74265 -0 62.86934 -0 -8.16229 -3.554658 10.67951 -1.329583 -0.1595899 4.637564 1.431764 7.997201 -6.987654 0.7289944 22.36945 7.913513 4.28411 -22.47876 7.637531 5.17 -17.5862 11.36681 86.25492 39.25546 -18.63521 -0 0 12.56067 -17.25496 14.49498 9.087843 4.864131 -20.45231 -2.300329 -93.26799 32.66912 22.68648 0 0 -21.82798 -3.998604 15.07675 21.0597
1.479355 106.1163 59.4767 -0.08375642 -3.392858 0.4778261 5.422689 -4.416664 3.521735 -0 13.21767 -0 -5.711344 -9.198881 -2.45309 -2.801793 -9.092115 -7.628052 -0 63.13192 -0 -7.469952 -4.187546 12.55022 -1.390713 -0.1160365 5.409328 0.9834585 8.251535 -6.431024 0.7587258 22.41448 7.95559 4.355256 -21.99194 7.568479 5.114191 -18.07498 11.47498 84.85608 39.83519 -16.58872 -0 0 13.39363 -19.38672 15.43602 10.07615 4.827606 -20.3193 -2.014763 -93.52743 31.65495 23.59558 0 0 -20.82318 -3.222275 14.94036 20.36699
1.673511 106.6738 64.68334 0.5723451 -4.560102 -0.09045939 4.736043 1.259789 3.32202 -0 10.65411 -0 -4.37956 -11.08908 -1.865167 -1.847323 -15.68127 -6.448966 -0 57.50482 -0 -7.152886 -5.281426 14.54714 -1.463263 -0.1088657 6.231659 0.4868803 8.51422 -5.818581 0.8320401 22.43165 7.985995 4.413736 -21.46911 7.543011 5.038689 -18.65541 11.58416 83.2669 40.18088 -14.32217 -0 0 14.49008 -21.63572 16.35226 11.12817 4.793184 -20.09211 -1.725749 -93.85725 30.62845 24.63722 0 0 -19.71719 -2.536672 14.79693 19.73731
1.885604 106.5517 69.8226 0.6914958 -4.97251 -0.5935137 4.523881 6.210792 3.131716 -0 8.80085 -0 -3.385436 -13.37604 -1.384969 -0.3537164 -21.13288 -5.083462 -0 47.92612 -0 -6.96886 -6.197243 16.35644 -1.537716 -0.1349229 7.053017 -0.02453014 8.769632 -5.186557 0.9488807 22.41258 8.00392 4.446571 -20.94241 7.573229 4.93959 -19.29268 11.68906 81.60223 40.23875 -11.98279 -0 0 15.78829 -23.91143 17.22324 12.2011 4.761415 -19.77522 -1.450379 -94.21314 29.61496 25.72703 0 0 -18.57582 -1.981624 14.65336 19.19748
2.144972 105.8274 75.08964 0.4641028 -4.726369 -1.090887 4.498192 10.15516 2.928037 -0 7.911405 -0 -2.586675 -15.6753 -1.022535 1.236393 -25.08612 -3.701619 -0 37.03812 -0 -6.71949 -6.666296 17.78404 -1.604412 -0.1835692 7.815786 -0.5114885 9.006625 -4.578935 1.10082 22.355 8.012357 4.441911 -20.44173 7.665 4.819276 -19.93546 11.7851 80.0088 39.99551 -9.753927 -0 0 17.18182 -26.12086 18.03968 13.25133 4.729369 -19.38797 -1.211675 -94.53354 28.63241 26.75559 0 0 -17.47514 -1.576764 14.50564 18.75699
2.497454 104.6812 80.66009 0.1535449 -4.137291 -1.611647 4.329678 13.20657 2.759413 -0 8.17915 -0 -1.807629 -17.39799 -0.7251078 2.390779 -27.54183 -2.677938 -0 27.26893 -0 -6.367269 -6.730842 18.79088 -1.654177 -0.2393668 8.464888 -0.9377419 9.22171 -4.041346 1.27236 22.26408 8.018313 4.391932 -19.98678 7.817626 4.686326 -20.52312 11.86705 78.64284 39.48475 -7.829429 -0 0 18.53491 -28.17479 18.80269 14.23421 4.693809 -18.96601 -1.036711 -94.75106 27.69744 27.60551 0 0 -16.49747 -1.320157 14.33839 18.41248
2.992923 103.3403 86.66495 -0.01093012 -3.583771 -2.1612 3.781707 15.64176 2.725191 -0 9.868735 -0 -0.9762621 -17.85965 -0.4652163 2.708763 -28.70345 -2.353347 -0 20.28677 -0 -5.95538 -6.608586 19.43877 -1.679021 -0.2863009 8.955747 -1.277432 9.418757 -3.614262 1.444204 22.15195 8.031671 4.294755 -19.58372 8.024906 4.553017 -20.99518 11.92827 77.64202 38.78254 -6.381316 -0 0 19.70423 -29.99469 19.5224 15.10494 4.654921 -18.55898 -0.9513916 -94.80611 26.82981 28.17011 0 0 -15.72448 -1.189615 14.1324 18.15185
